<svg width="651" height="345" viewBox="0 0 651 345" fill="none" xmlns="http://www.w3.org/2000/svg">
<path d="M406.714 193.372V273.436V344C425.276 330.092 445.019 314.578 464.959 298.028V111.274L406.714 149.949V175.732V193.372Z" fill="#1A2F9A"/>
<path d="M523.204 246.942V72.5997L464.959 111.274V298.028C484.493 281.815 504.217 264.608 523.204 246.942Z" fill="#3045B3"/>
<path d="M523.204 36.0001C493.5 58.5003 406.714 105.167 406.714 105.167V149.949L464.959 111.274L523.204 72.5997V36.0001Z" fill="#4D4141"/>
<path d="M324 3.50003C158 -10.5 8.43525 26.556 1.26259 326.863C10.7316 22.627 273.92 51.4234 406.714 105.167C406.714 105.167 493.5 58.5003 523.204 36.0001C523.204 36.0001 490 17.5001 324 3.50003Z" fill="#756969"/>
<path d="M406.714 193.372V175.732V149.949V105.167C273.92 51.4234 10.7316 22.627 1.26259 326.863C1.18783 329.993 1.12758 333.146 1.08188 336.32C6.43402 87.7128 272.838 136.952 406.714 193.372Z" fill="#1A2F9A"/>
<path d="M406.714 273.436V193.372C272.838 136.952 6.43402 87.7128 1.08188 336.32L1.07212 337.015C6.09981 96.173 272.754 193.681 406.714 273.436Z" fill="#3045B2"/>
<path d="M1 344H406.714V273.436C272.754 193.681 6.09981 96.173 1.07212 337.015C1.04035 339.331 1.0163 341.66 1 344Z" fill="#00B13C"/>
<path d="M523.204 246.942C651.239 127.818 729 50.5001 523.204 36.0001V72.5997V246.942Z" fill="#AD9B9B"/>
<path d="M1 344H406.714M1 344C1 338.174 1.08833 332.462 1.26259 326.863M1 344C1.0163 341.66 1.04035 339.331 1.07212 337.015M1 344C1 341.641 1.02415 339.312 1.07212 337.015M1 344C1 341.409 1.02743 338.849 1.08188 336.32M406.714 344V273.436M406.714 344C425.276 330.092 445.019 314.578 464.959 298.028M406.714 105.167C406.714 105.167 493.5 58.5003 523.204 36.0001M406.714 105.167V149.949M406.714 105.167C273.92 51.4234 10.7316 22.627 1.26259 326.863M406.714 193.372V273.436M406.714 193.372V175.732V149.949M406.714 193.372C272.838 136.952 6.43402 87.7128 1.08188 336.32M406.714 273.436C272.754 193.681 6.09981 96.173 1.07212 337.015M523.204 36.0001C523.204 36.0001 490 17.5001 324 3.50003C158 -10.5 8.43525 26.556 1.26259 326.863M523.204 36.0001C729 50.5001 651.239 127.818 523.204 246.942M523.204 36.0001V72.5997M523.204 246.942V72.5997M523.204 246.942C504.217 264.608 484.493 281.815 464.959 298.028M406.714 149.949L464.959 111.274M523.204 72.5997L464.959 111.274M464.959 111.274V298.028M1.26259 326.863C1.18783 329.993 1.12758 333.146 1.08188 336.32M1.07212 337.015C1.07529 336.783 1.07855 336.552 1.08188 336.32M1.07212 337.015L1.08188 336.32" stroke="#222222" stroke-width="0.1"/>
</svg>
