<svg width="62" height="39" viewBox="0 0 62 39" fill="none" xmlns="http://www.w3.org/2000/svg">
<path d="M38.108 24.2049V31.5374V38C39.8057 36.7262 41.6115 35.3054 43.4353 33.7897V16.686L38.108 20.228V22.5893V24.2049Z" fill="#1A2F9A"/>
<path d="M48.7625 29.111V13.144L43.4353 16.686V33.7897C45.2219 32.3048 47.0259 30.7289 48.7625 29.111Z" fill="#3045B3"/>
<path d="M48.7625 5.68721C48.4508 10.1254 38.108 16.1267 38.108 16.1267V20.228L43.4353 16.686L48.7625 13.144V5.68721Z" fill="#A5A5A5"/>
<path d="M38.108 1.08875C14.5613 -0.00915527 1.68005 8.92713 1.02402 36.4305C1.89008 8.5673 25.9622 11.2046 38.108 16.1267C38.108 16.1267 48.4508 10.1254 48.7625 5.68721C48.9256 3.36627 46.3453 1.47283 38.108 1.08875Z" fill="#756969"/>
<path d="M38.108 24.2049V22.5893V20.228V16.1267C25.9622 11.2046 1.89008 8.5673 1.02402 36.4305C1.01718 36.7172 1.01167 37.0059 1.00749 37.2966C1.49701 14.5281 25.8632 19.0377 38.108 24.2049Z" fill="#1A2F9A"/>
<path d="M38.108 31.5374V24.2049C25.8632 19.0377 1.49701 14.5281 1.00749 37.2966L1.0066 37.3602C1.46645 15.303 25.8555 24.2331 38.108 31.5374Z" fill="#3045B2"/>
<path d="M1 38H38.108V31.5374C25.8555 24.2331 1.46645 15.303 1.0066 37.3602C1.00369 37.5724 1.00149 37.7857 1 38Z" fill="#00B13C"/>
<path d="M48.7625 29.111C60.4731 18.2011 69.1218 5.38122 48.7625 5.68721V13.144V29.111Z" fill="#241F1F"/>
<path d="M1 38H38.108M1 38C1 37.4664 1.00808 36.9433 1.02402 36.4305M1 38C1.00149 37.7857 1.00369 37.5724 1.0066 37.3602M1 38C1 37.7839 1.00221 37.5707 1.0066 37.3602M1 38C1 37.7627 1.00251 37.5283 1.00749 37.2966M38.108 38V31.5374M38.108 38C39.8057 36.7262 41.6115 35.3054 43.4353 33.7897M38.108 16.1267C38.108 16.1267 48.4508 10.1254 48.7625 5.68721M38.108 16.1267V20.228M38.108 16.1267C25.9622 11.2046 1.89008 8.5673 1.02402 36.4305M38.108 24.2049V31.5374M38.108 24.2049V22.5893V20.228M38.108 24.2049C25.8632 19.0377 1.49701 14.5281 1.00749 37.2966M38.108 31.5374C25.8555 24.2331 1.46645 15.303 1.0066 37.3602M48.7625 5.68721C48.9256 3.36627 46.3453 1.47283 38.108 1.08875C14.5613 -0.0091553 1.68005 8.92713 1.02402 36.4305M48.7625 5.68721C69.1218 5.38122 60.4731 18.2011 48.7625 29.111M48.7625 5.68721V13.144M48.7625 29.111V13.144M48.7625 29.111C47.0259 30.7289 45.2219 32.3048 43.4353 33.7897M38.108 20.228L43.4353 16.686M48.7625 13.144L43.4353 16.686M43.4353 16.686V33.7897M1.02402 36.4305C1.01718 36.7172 1.01167 37.0059 1.00749 37.2966M1.0066 37.3602C1.00689 37.339 1.00718 37.3178 1.00749 37.2966M1.0066 37.3602L1.00749 37.2966" stroke="black" stroke-width="0.1"/>
</svg>
